# xmcd CD database file
#
# Track frame offsets:
#	150
#	15813
#	42868
#	60453
#	82130
#	103140
#	121988
#	152093
#	173748
#	197890
#	229618
#	251605
#	273730
#	294785
#
# Disc length: 4123 seconds
#
# Revision: 2
# Processed by: cddbd v1.5.1PL0 Copyright (c) Steve Scherf et al.
# Submitted via: CDex 1.51
#
DISCID=b610190e
DTITLE=aosis records - slow music style urban and resort [resort]
DYEAR=2003
DGENRE=Easy Listening
TTITLE0=Pra que Chorar - Carol Sboya
TTITLE1=Itacuruca - Pamela Driggs
TTITLE2=Over the Rainbow - nanan
TTITLE3=Amapola - Seikou Nagaoka
TTITLE4=Naturally - Philippe Saisse Acoustique Trio
TTITLE5=I'm Gonna Make You Love Me - East 4th HornS
TTITLE6=Easy Going - Romero Lubambo (feat. Ivan Lins)
TTITLE7=I Believe I Can Fly - Motoya Hamaguchi
TTITLE8=Feel Like Makin' Love - paris match
TTITLE9=Rio Samba - Rie Akagi
TTITLE10=Send One Your Love - Masaki Matsubara
TTITLE11=My Cherie Amour - Osamu Koike
TTITLE12=What's going on - Kuk Harrell
TTITLE13=Luar - Carol Saboya
EXTD=YEAR: 2003
EXTT0=
EXTT1=
EXTT2=
EXTT3=
EXTT4=
EXTT5=
EXTT6=
EXTT7=
EXTT8=
EXTT9=
EXTT10=
EXTT11=
EXTT12=
EXTT13=
PLAYORDER=
